<?xml version="1.0" encoding="UTF-8" standalone="no"?>
<svg
   version="1.0"
   width="327.7934pt"
   height="335.91968pt"
   viewBox="0 0 327.7934 335.91968"
   preserveAspectRatio="xMidYMid"
   id="svg4"
   xmlns="http://www.w3.org/2000/svg"
   xmlns:svg="http://www.w3.org/2000/svg">
  <defs
     id="defs4" />
  <g
     transform="matrix(0.1,0,0,-0.1,-351.16757,686.9197)"
     fill="#000000"
     stroke="none"
     id="g4">
    <path
       d="m 6492,6851 c -140,-48 -207,-178 -153,-296 38,-84 163,-160 262,-160 77,1 127,34 164,110 25,50 27,63 23,145 -4,80 -7,95 -34,132 -59,84 -149,108 -262,69 z"
       id="path1" />
    <path
       d="m 3646,6438 c -51,-14 -112,-76 -126,-129 -8,-29 -10,-254 -7,-783 4,-700 5,-747 25,-851 67,-352 239,-656 488,-864 243,-202 521,-301 849,-301 373,0 686,129 945,389 206,207 339,458 400,758 35,169 42,368 38,1028 -4,616 -4,620 -26,662 -13,24 -41,55 -64,70 l -41,28 -301,3 c -417,4 -530,-14 -701,-114 -75,-44 -201,-157 -239,-214 l -16,-24 -17,24 c -92,133 -271,251 -458,301 -73,20 -108,22 -395,25 -203,2 -329,-1 -354,-8 z m 714,-295 c 101,-37 144,-65 221,-142 92,-92 134,-173 156,-299 35,-201 -41,-402 -192,-511 -78,-55 -154,-82 -250,-88 -202,-13 -367,82 -458,265 l -42,85 -3,360 -3,359 258,-4 c 228,-4 264,-7 313,-25 z m 1620,-290 c 0,-349 -8,-419 -56,-502 -97,-166 -244,-251 -433,-251 -147,0 -257,43 -347,136 -60,61 -119,173 -134,253 -38,205 16,391 153,525 137,135 205,154 560,155 l 257,1 z m -1029,-804 80,-80 -80,-119 -80,-120 -84,125 -84,124 37,25 c 20,13 56,47 81,75 24,27 45,50 47,51 1,0 38,-36 83,-81 z M 3930,4907 c 138,-76 342,-102 485,-64 33,9 62,13 66,9 3,-4 52,-77 109,-162 143,-214 176,-257 210,-275 40,-21 108,-19 145,4 24,14 201,258 316,433 3,5 33,2 70,-8 77,-20 239,-23 324,-5 82,18 219,83 279,133 l 49,42 -6,-105 c -29,-471 -266,-852 -640,-1029 -222,-106 -531,-127 -781,-55 -360,104 -643,432 -735,853 -16,72 -41,267 -41,319 0,9 16,1 43,-20 23,-19 71,-51 107,-70 z"
       id="path2" />
    <path
       d="m 4196,5765 c -88,-31 -128,-89 -127,-181 1,-102 69,-175 169,-182 104,-7 184,57 198,160 19,137 -113,249 -240,203 z"
       id="path3" />
    <path
       d="m 5465,5771 c -113,-28 -169,-121 -141,-232 47,-179 299,-187 357,-12 16,50 7,126 -22,167 -40,59 -126,93 -194,77 z"
       id="path4" />
  </g>
</svg>
