<svg width="1790" height="1342" viewBox="0 0 1790 1342" fill="none" xmlns="http://www.w3.org/2000/svg">
<g opacity="0.22">
<path d="M0 10.4843V20.9687L11.6005 29.3562C17.89 33.9693 102.029 95.0582 198.467 165.094C294.905 235.269 488.9 376.179 629.365 478.367C769.969 580.695 885.276 664.01 885.555 663.591C885.835 663.311 881.642 658.978 876.051 654.085C843.066 624.869 154.161 4.33346 152.484 2.37637C150.807 0.139706 144.378 -8.60683e-05 75.3337 -8.60683e-05H0V10.4843Z" fill="white"/>
<path d="M305.388 16.3555C313.494 25.442 447.669 174.46 603.508 347.662C812.038 579.436 887.093 661.913 887.931 660.516C888.63 659.118 853.409 578.458 780.871 415.601C721.33 281.96 655.501 133.781 634.396 86.3912L596.1 0.139716L551.515 -7.54715e-05H507.07L509.026 3.07534C510.704 5.73138 714.342 358.426 848.937 591.878C870.181 628.783 887.232 659.118 886.953 659.397C886.533 659.817 588.553 250.367 454.238 64.7235L407.417 0.139716L348.995 -7.54715e-05H290.573L305.388 16.3555Z" fill="white"/>
<path d="M683.454 20.5494C690.163 40.959 800.857 382.051 860.257 565.178C889.469 655.204 890.447 658.559 888.35 661.914C887.092 663.871 885.695 665.408 885.415 665.408C884.856 665.408 650.05 529.95 152.345 242.678L0.698828 155.169L0.279531 213.462C0.139766 245.474 0.419297 272.174 0.978359 272.734C1.67719 273.293 50.1759 295.1 109.017 321.241C167.859 347.382 349.554 428.322 512.94 501.153C676.326 573.985 827.133 641.085 847.958 650.451C868.923 659.677 885.835 667.505 885.695 667.785C885.276 668.064 655.92 593.695 132.777 423.709L0.698828 380.792L0.279531 430.419C0.139766 457.678 0.279531 480.184 0.559063 480.604C0.978359 480.883 13.9766 483.819 29.6303 487.174C45.2841 490.529 160.591 514.992 285.821 541.693C495.609 586.286 801.696 651.429 856.763 663.311C869.482 665.967 880.384 668.204 881.083 668.204C881.781 668.204 882.061 668.484 881.642 668.903C881.222 669.322 862.494 667.785 839.852 665.408C791.912 660.376 651.028 645.698 566.051 636.751C533.346 633.256 458.292 625.428 399.031 619.277C185.609 596.91 13.138 578.737 6.56898 577.899L0 576.92V624.03V671L445.713 670.72C690.862 670.441 891.984 669.742 892.683 669.183C893.242 668.484 893.941 517.649 894.221 333.962L894.5 -3.8147e-06H859.559C834.261 -3.8147e-06 824.617 0.419371 824.617 1.5377C824.617 2.51625 828.67 42.2171 833.702 90.0258C845.163 199.063 876.191 494.303 882.62 555.672C885.276 580.974 888.77 614.245 890.307 629.622C891.984 644.859 892.963 657.58 892.683 657.86C892.404 658.139 884.437 622.352 875.073 578.458C850.753 464.388 777.936 122.457 764.518 58.7125C758.229 29.0767 752.917 3.77437 752.498 2.37645C751.799 0.139788 748.725 -3.8147e-06 714.202 -3.8147e-06H676.745L683.454 20.5494Z" fill="white"/>
<path d="M964.662 4.47336C964.523 6.98961 962.147 29.7757 959.491 55.2177C956.836 80.52 949.987 146.362 944.117 201.3C938.386 256.238 925.248 382.19 914.766 481.023C904.423 579.856 895.898 663.172 895.898 665.968V671.14L901.908 670.441C905.122 669.882 986.047 661.354 1081.79 651.429C1177.53 641.364 1279.41 630.74 1308.21 627.665C1337 624.589 1435.81 614.245 1527.64 604.599C1757.55 580.415 1788.16 577.2 1788.58 576.781C1788.86 576.501 1788.86 554.973 1788.72 528.832L1788.3 481.443L1562.58 529.391C1018.89 644.859 908.057 668.344 907.638 667.785C907.079 667.226 1032.31 626.407 1508.07 471.797L1788.3 380.653L1788.72 326.693L1789 272.734L1778.24 277.626C1772.23 280.422 1686.83 318.445 1588.44 362.34C1490.04 406.235 1375.29 457.259 1333.36 475.991C1221.13 525.896 917.142 661.215 910.433 664.011C905.542 666.107 904.703 666.247 904.703 664.43C904.703 662.333 928.463 640.805 1206.88 389.879C1296.05 309.639 1429.1 189.837 1502.48 123.716C1575.86 57.5942 1636.8 2.79586 1638.05 1.81732C1639.73 0.419401 1625.33 0.139817 1569.57 2.55555e-05H1498.99L1452.16 52.1423C1405.48 104.005 918.68 644.579 906.799 657.58C903.445 661.354 900.23 663.871 899.811 663.172C899.252 662.473 940.762 567.834 991.917 452.925C1042.93 338.016 1109.18 189.138 1138.95 122.318L1193.04 0.698984L1153.21 0.279609C1131.4 0.139817 1113.37 0.139817 1113.09 0.419401C1112.81 0.698984 1070.46 130.705 1018.89 289.509C903.166 645.418 898.693 658.838 897.715 659.817C897.295 660.236 897.295 658.978 897.715 657.021C898.134 655.064 904.284 626.407 911.272 593.416C935.591 478.227 1035.8 6.29065 1036.64 3.07544L1037.34 2.55555e-05H1001.14H964.942L964.662 4.47336Z" fill="white"/>
<path d="M1195.69 149.857C1148.17 232.334 1062.92 380.093 1006.31 478.087C900.23 661.634 898.693 664.29 901.209 661.913C902.047 661.075 938.666 610.75 982.832 550.08C1026.86 489.271 1134.34 341.231 1221.55 221.15C1308.77 100.93 1380.47 2.09676 1380.6 1.39781C1380.88 0.559056 1362.58 -0.00011078 1331.69 -0.00011078H1282.21L1195.69 149.857Z" fill="white"/>
<path d="M1723.31 69.0572C1673.41 105.403 1307.37 371.427 942.439 636.611C922.313 651.15 905.961 663.451 906.38 663.731C906.659 664.011 948.03 640.526 998.206 611.449C1086.4 560.425 1543.29 296.498 1708.36 201.44L1789 154.749V88.628C1789 52.1424 1788.58 22.3668 1788.02 22.5066C1787.32 22.5066 1758.25 43.4753 1723.31 69.0572Z" fill="white"/>
<path d="M939.225 672.398C914.626 672.957 913.089 673.237 923.152 674.215C929.302 674.774 963.964 678.409 1000.02 682.183C1036.22 685.958 1125.53 695.464 1198.49 703.012C1271.59 710.701 1367.19 720.766 1410.93 725.379C1454.82 729.992 1539.1 738.939 1598.22 745.09C1657.48 751.24 1723.31 758.23 1744.69 760.467C1766.08 762.843 1784.81 764.66 1786.34 764.66C1788.86 764.66 1789 763.262 1789 717.83V671L1377.81 671.28C1151.53 671.419 954.18 671.979 939.225 672.398Z" fill="white"/>
<path d="M761.723 685.119C697.57 691.969 570.523 705.389 479.396 715.035C388.269 724.54 243.192 739.778 156.817 748.864L0 765.36V813.168C0 839.589 0.279531 861.117 0.559062 861.117C0.838594 861.117 69.184 846.578 152.484 828.965C235.785 811.211 419.437 772.209 560.46 742.154C701.484 712.239 831.885 684.56 850.194 680.646C868.504 676.732 883.738 673.796 884.018 674.076C884.577 674.495 737.124 722.583 187.426 901.237C84.8377 934.507 0.698828 961.907 0.419297 962.186C0.139766 962.466 0.139766 986.65 0.279531 1016.01L0.698828 1069.27L218.733 972.111C725.384 746.488 883.738 676.172 885.415 676.172C886.394 676.172 886.953 675.334 886.533 674.215C886.114 673.237 884.157 672.538 882.061 672.538C880.104 672.678 825.875 678.269 761.723 685.119Z" fill="white"/>
<path d="M888.909 673.656C891.285 675.334 890.447 676.452 886.394 677.291C884.856 677.57 694.076 787.167 462.484 920.947C230.753 1054.73 32.0063 1169.36 20.6853 1175.79L0.139766 1187.53L0 1254.49C0 1307.75 0.419297 1321.03 1.81695 1320.05C7.82688 1315.16 874.514 685.958 881.921 680.925L886.813 677.57L881.921 682.463C879.266 685.259 740.199 810.652 573.039 961.207C405.879 1111.76 242.493 1258.82 209.928 1288.04L150.947 1341.3L220.69 1341.72L290.573 1342L296.024 1336.13C299.098 1332.77 396.096 1225.13 511.682 1096.67C855.366 714.755 885.695 681.205 887.931 681.205C889.748 681.205 889.748 681.764 887.931 686.237C885.835 691.27 818.188 843.363 673.81 1167.68C631.461 1262.88 596.799 1341.02 596.799 1341.3C596.799 1341.72 614.829 1341.86 636.912 1341.72L677.025 1341.3L728.319 1183.34C812.877 922.625 888.63 690.151 890.167 686.377C890.866 684.42 891.565 683.441 891.565 684.001C891.705 685.818 754.036 1334.45 752.498 1339.48C751.799 1341.86 754.175 1342 788.138 1342C821.542 1342 824.617 1341.86 824.617 1339.62C824.617 1337.39 837.196 1217.03 851.173 1084.78C864.45 959.81 893.102 683.861 893.522 678.689C893.801 673.656 893.382 673.097 890.307 672.677C887.652 672.398 887.232 672.538 888.909 673.656Z" fill="white"/>
<path d="M896.037 676.731C896.037 680.226 896.317 680.785 897.155 678.968C897.715 677.57 898.693 676.312 899.392 676.312C900.23 676.312 900.65 675.893 900.51 675.334C900.37 674.774 901.069 674.215 902.187 674.215C903.305 674.215 903.724 674.914 903.305 675.613C902.746 676.452 903.305 676.731 904.843 676.172C906.24 675.613 952.503 690.012 1017.21 710.98C1280.53 796.533 1784.53 960.369 1786.62 961.208C1788.86 962.046 1789 958.412 1789 911.581C1789 883.763 1788.72 861.117 1788.3 861.117C1787.18 861.117 1400.73 778.919 1143.28 723.981C1013.02 696.163 904.004 673.097 901.209 672.817C896.037 672.118 895.898 672.118 896.037 676.731Z" fill="white"/>
<path d="M899.532 679.667C897.435 682.882 900.929 700.077 966.479 1008.74C1004.5 1187.81 1036.08 1335.99 1036.5 1338.23L1037.34 1342H1075.08C1104.71 1342 1112.67 1341.58 1112.12 1340.18C1111.14 1337.67 1103.31 1313.48 1033.15 1097.36C914.487 732.369 898.553 683.162 899.112 682.603C899.392 682.323 954.879 806.179 1022.39 957.852C1089.89 1109.53 1156 1257.85 1169.14 1287.48L1193.18 1341.3L1237.49 1341.72C1261.94 1341.86 1281.51 1341.58 1281.23 1341.02C1280.39 1339.62 1098.14 1023.83 982.972 824.212C937.408 745.09 900.231 680.226 900.51 679.947C900.79 679.667 1377.39 1334.87 1380.74 1340.46C1381.44 1341.58 1396.68 1342 1439.73 1341.72L1497.87 1341.3L1200.31 1010.83C1036.78 829.104 902.886 680.086 902.886 679.667C902.886 679.248 904.004 679.947 905.402 681.065C916.863 690.99 1634.98 1337.81 1636.52 1339.62C1638.19 1341.86 1644.9 1342 1713.81 1342H1789.14L1788.72 1331.38L1788.3 1320.61L1568.17 1160.69C1447.13 1072.76 1248.81 928.636 1127.63 840.567C1006.31 752.359 907.359 679.947 907.778 679.667C908.057 679.387 943.977 699.657 987.724 724.96C1105.27 792.759 1528.62 1037.11 1667.12 1117.08C1733.37 1155.52 1788.02 1186.83 1788.3 1186.83C1788.72 1186.83 1788.86 1160.41 1788.72 1127.98L1788.3 1069.27L1738.68 1047.18C1685.43 1023.55 1463.91 924.722 1121.62 772.349C879.825 664.57 904.983 675.613 906.24 677.71C907.498 679.807 905.402 679.947 903.305 677.85C902.187 676.731 901.209 677.151 899.532 679.667Z" fill="white"/>
<path d="M789.536 815.964C736.285 889.634 628.526 1037.81 550.257 1145.59L407.976 1341.3L457.313 1341.72C484.288 1341.86 506.93 1341.58 507.629 1340.88C508.188 1340.32 562.277 1247.08 627.687 1133.71C693.098 1020.34 778.355 872.58 817.21 805.48C856.064 738.38 887.512 683.162 887.232 682.882C886.953 682.463 842.926 742.434 789.536 815.964Z" fill="white"/>
<path d="M895.478 715.733C894.919 731.53 894.5 878.87 894.5 1043.13V1342H929.861H965.221L961.308 1305.93C956.975 1264.56 906.799 786.328 898.972 711.54L896.457 687.076L895.478 715.733Z" fill="white"/>
</g>
</svg>
