<?xml version="1.0" encoding="UTF-8" standalone="no"?>
<svg
   version="1.0"
   width="209.20952pt"
   height="262.31213pt"
   viewBox="0 0 209.20952 262.31213"
   preserveAspectRatio="xMidYMid"
   id="svg14"
   xmlns="http://www.w3.org/2000/svg"
   xmlns:svg="http://www.w3.org/2000/svg">
  <defs
     id="defs14" />
  <g
     transform="matrix(0.1,0,0,-0.1,-38.120546,284.31215)"
     fill="#000000"
     stroke="none"
     id="g14">
    <path
       d="m 2345,2821 c -33,-15 -102,-54 -152,-85 l -93,-57 -107,34 c -196,63 -359,87 -593,87 -222,0 -406,-31 -571,-96 l -67,-26 -138,81 c -135,79 -177,94 -202,69 -22,-22 -12,-58 58,-198 38,-77 70,-145 70,-151 0,-6 -16,-29 -35,-50 -42,-46 -75,-111 -106,-204 -22,-67 -23,-87 -27,-425 -5,-475 12,-622 97,-835 86,-215 278,-447 471,-571 l 45,-29 -190,-2 c -115,-2 -198,-7 -211,-14 -47,-25 -50,-94 -5,-118 13,-8 282,-11 844,-11 h 824 l 21,23 c 25,27 28,65 8,93 -13,17 -31,19 -221,24 l -206,5 68,45 c 209,137 395,390 482,655 52,160 60,240 63,690 3,381 2,414 -16,465 -28,83 -61,143 -111,204 l -45,55 76,153 c 41,83 74,161 72,171 -2,11 -12,26 -23,33 -18,12 -28,10 -80,-15 z M 1142,2443 c 37,-17 83,-44 103,-60 45,-36 107,-124 131,-188 26,-69 26,-211 0,-280 -63,-166 -205,-269 -387,-282 -247,-18 -443,146 -463,385 -11,147 73,320 192,394 90,56 141,69 252,66 94,-3 112,-7 172,-35 z m 940,0 c 165,-78 256,-232 246,-418 -12,-223 -197,-395 -426,-395 -173,0 -315,87 -394,240 -32,63 -33,69 -33,180 0,108 2,119 32,182 53,113 137,187 258,231 38,13 73,17 150,14 88,-2 108,-6 167,-34 z M 705,1560 c 92,-42 160,-55 275,-54 119,1 202,20 294,66 56,28 61,29 71,13 67,-112 78,-121 123,-90 12,9 35,36 52,60 l 31,45 57,-29 c 93,-47 167,-64 272,-65 153,0 285,46 381,131 26,24 50,43 53,43 3,0 6,-63 6,-140 0,-379 -92,-627 -319,-864 -121,-125 -192,-167 -310,-181 -87,-10 -157,-56 -176,-116 -6,-17 -16,-19 -83,-19 h -77 l -19,35 c -30,56 -83,85 -178,99 -109,16 -187,58 -281,150 -133,129 -222,267 -277,430 -49,144 -61,219 -67,420 l -6,188 59,-48 c 33,-26 86,-60 119,-74 z"
       id="path1" />
    <path
       d="m 890,2237 c -19,-6 -51,-28 -71,-48 -87,-87 -64,-246 43,-302 191,-98 381,112 257,283 -51,70 -139,95 -229,67 z"
       id="path2" />
    <path
       d="m 1830,2234 c -146,-63 -162,-262 -27,-344 109,-66 257,-5 286,117 38,156 -115,289 -259,227 z"
       id="path3" />
    <path
       d="m 1011,1204 c -31,-40 -26,-63 27,-113 51,-49 331,-252 375,-272 33,-15 48,-6 251,146 159,119 206,163 206,194 0,29 -39,71 -65,71 -25,0 -127,-66 -274,-177 -46,-35 -89,-63 -96,-63 -6,0 -52,28 -101,63 -193,136 -257,177 -280,177 -12,0 -32,-12 -43,-26 z"
       id="path4" />
    <path
       d="m 5195,2176 c -84,-36 -97,-164 -24,-217 93,-66 219,-5 219,107 0,93 -102,150 -195,110 z"
       id="path5" />
  </g>
</svg>
